# xmcd
#
# Track frame offsets:
#	150
#	16978
#	38830
#	54524
#	69126
#	85844
#	102892
#	119621
#	139683
#	164510
#	182415
#	199833
#	216296
#	234800
#
# Disc length: 3373 seconds
#
# Revision: 0
# Processed by: cddbd v1.5.2PL0 Copyright (c) Steve Scherf et al.
# Submitted via: audiograbber 1.83.01
#
DISCID=b60d2b0e
DTITLE=Naomi Sommers - Gentle as the sun
DYEAR=2009
DGENRE=Country
TTITLE0=Two Sparrows
TTITLE1=Hypnotizing
TTITLE2=Come home
TTITLE3=February
TTITLE4=Gentle as the sun
TTITLE5=Sea of heartbreak
TTITLE6=Mama´s house
TTITLE7=Top of the hill
TTITLE8=Watershed song
TTITLE9=Grazy sky girls
TTITLE10=Now he´s gone
TTITLE11=Hard to love him
TTITLE12=Fine morning
TTITLE13=It´ll be alright
EXTD=
EXTT0=
EXTT1=
EXTT2=
EXTT3=
EXTT4=
EXTT5=
EXTT6=
EXTT7=
EXTT8=
EXTT9=
EXTT10=
EXTT11=
EXTT12=
EXTT13=
PLAYORDER=
